<?xml version="1.0" encoding="UTF-8" standalone="no"?><svg xmlns="http://www.w3.org/2000/svg" xmlns:xlink="http://www.w3.org/1999/xlink" fill="#bd0004" height="328" preserveAspectRatio="xMidYMid meet" version="1" viewBox="54.4 36.0 292.4 328.0" width="292.4" zoomAndPan="magnify"><g id="change1_1"><path d="M 260.421875 121.683594 C 260.113281 121.328125 259.808594 120.96875 259.503906 120.613281 C 258.445312 121.722656 257.390625 122.832031 256.335938 123.941406 C 256.65625 124.238281 256.976562 124.535156 257.300781 124.828125 C 258.339844 123.78125 259.382812 122.730469 260.421875 121.683594 Z M 258.140625 109.371094 C 258.464844 109.8125 258.789062 110.253906 259.117188 110.695312 C 260.085938 109.652344 261.054688 108.605469 262.023438 107.5625 C 261.769531 107.3125 261.519531 107.0625 261.269531 106.8125 C 260.226562 107.664062 259.183594 108.519531 258.140625 109.371094 Z M 281 93.855469 C 281.253906 94.144531 281.507812 94.433594 281.761719 94.722656 C 282.761719 93.808594 283.761719 92.894531 284.757812 91.984375 C 284.527344 91.742188 284.296875 91.5 284.066406 91.257812 C 283.042969 92.121094 282.019531 92.988281 281 93.855469 Z M 227.976562 177.847656 C 228.378906 178.085938 228.785156 178.328125 229.1875 178.566406 C 231.078125 176.425781 232.972656 174.289062 236.171875 170.667969 C 233.597656 171.6875 232.75 171.761719 232.355469 172.226562 C 230.816406 174.03125 229.421875 175.960938 227.976562 177.847656 Z M 244.710938 134.09375 C 245.238281 134.644531 245.769531 135.195312 246.300781 135.746094 C 248.726562 133.230469 251.148438 130.71875 253.574219 128.203125 C 253.140625 127.78125 252.703125 127.363281 252.269531 126.941406 C 249.75 129.328125 247.230469 131.710938 244.710938 134.09375 Z M 93.859375 116.105469 C 95.433594 118.613281 97.011719 121.125 98.699219 123.816406 C 102.367188 119.617188 102.367188 119.617188 93.859375 116.105469 Z M 176.441406 269.5625 C 176.964844 270.140625 177.488281 270.71875 178.015625 271.296875 C 182.542969 265.949219 187.074219 260.605469 191.601562 255.257812 C 191.101562 254.832031 190.601562 254.402344 190.097656 253.976562 C 185.546875 259.171875 180.992188 264.363281 176.441406 269.5625 Z M 140.285156 170.972656 C 148.234375 178.414062 155.699219 186.335938 165.332031 191.507812 C 159.121094 181.992188 149.582031 176.546875 140.285156 170.972656 Z M 281.230469 253.519531 C 271.136719 240.605469 242.628906 220.109375 233.75 218.800781 C 250.199219 230.828125 265.714844 242.175781 281.230469 253.519531 Z M 101.910156 94.445312 C 111.226562 109.320312 124.417969 120.296875 137.195312 131.738281 C 136.382812 129.332031 134.867188 127.535156 133.300781 125.78125 C 129.328125 121.339844 124.601562 117.375 121.515625 112.386719 C 116.589844 104.425781 109.675781 99.035156 101.910156 94.445312 Z M 269.582031 135.46875 C 271.320312 134.300781 273.054688 133.136719 274.792969 131.972656 C 274.261719 131.480469 273.726562 130.992188 273.195312 130.5 C 272.046875 132.226562 270.894531 133.953125 269.746094 135.679688 C 263.273438 141.53125 256.703125 147.277344 250.390625 153.296875 C 248.441406 155.15625 247.1875 157.746094 245.613281 160.003906 C 242.441406 160.328125 241.140625 162.410156 241.171875 165.679688 C 242.605469 163.730469 244.039062 161.777344 245.472656 159.824219 C 251.175781 154.816406 257.058594 149.992188 262.507812 144.722656 C 265.265625 142.050781 267.246094 138.574219 269.582031 135.46875 Z M 304.53125 59.144531 C 310.34375 56.074219 313.144531 50.578125 316.242188 45.320312 C 310.421875 48.460938 304.820312 51.78125 304.730469 59.394531 C 298.40625 63.574219 292.816406 68.539062 288.503906 74.863281 C 295.875 71.746094 300.664062 65.933594 304.53125 59.144531 Z M 252.980469 184.003906 C 254.273438 182.621094 255.5625 181.238281 256.855469 179.855469 C 256.339844 179.546875 255.820312 179.238281 255.308594 178.933594 C 254.605469 180.71875 253.902344 182.503906 253.199219 184.289062 C 248.355469 184.441406 246.570312 188.089844 244.269531 191.144531 C 244.652344 191.550781 245.035156 191.960938 245.421875 192.371094 C 247.957031 189.597656 250.488281 186.828125 252.980469 184.003906 Z M 81.660156 325.65625 C 76.933594 329.632812 72.277344 333.699219 67.460938 337.558594 C 62.734375 341.34375 61.859375 348.921875 54.410156 350.890625 C 55.941406 336.046875 67.882812 327.644531 73.015625 315.191406 C 68.300781 319.988281 63.585938 324.785156 58.871094 329.582031 C 58.324219 329.125 57.773438 328.667969 57.21875 328.210938 C 58.433594 321.753906 64.996094 318.796875 68.242188 313.660156 C 71.742188 308.128906 76.214844 303.226562 80.097656 297.925781 C 83.976562 292.632812 87.542969 287.109375 91.441406 281.832031 C 95.339844 276.550781 99.453125 271.421875 103.527344 266.269531 C 107.601562 261.117188 111.726562 256.007812 115.859375 250.902344 C 119.996094 245.800781 124.15625 240.710938 128.34375 235.648438 C 132.527344 230.585938 136.757812 225.558594 140.976562 220.519531 C 145.167969 215.511719 149.367188 210.511719 154.019531 204.964844 C 146.328125 198.214844 139.023438 191.917969 131.851562 185.476562 C 121.859375 176.503906 111.960938 167.425781 102.03125 158.382812 C 87.546875 145.203125 76.789062 128.910156 64.890625 113.582031 C 63.226562 111.4375 63.074219 108.109375 61.847656 104.109375 C 68.234375 105.113281 70.234375 110.226562 74.972656 111.632812 C 76.625 109.421875 78.382812 107.0625 80.730469 103.914062 C 81.835938 106.847656 82.59375 108.863281 83.667969 111.722656 C 86.546875 105.101562 90.929688 109.816406 95.25 109.945312 C 94.074219 104.992188 89.445312 99.890625 97.167969 97.5 C 90.515625 84.996094 90.515625 84.996094 100.527344 80.488281 C 103.949219 83.550781 107.503906 86.730469 111.1875 90.019531 C 113.101562 82.757812 110.046875 77.691406 105.40625 73.046875 C 102.996094 70.632812 100.980469 67.820312 98.792969 65.175781 C 96.628906 62.5625 95.210938 59.699219 95.03125 56.445312 C 95.578125 56.105469 96.125 55.769531 96.671875 55.433594 C 107.179688 67.152344 117.433594 79.113281 128.265625 90.519531 C 139.074219 101.90625 150.277344 112.941406 161.65625 123.765625 C 173.191406 134.738281 185.15625 145.269531 197.453125 156.46875 C 203.128906 150.632812 207.984375 145.515625 212.976562 140.527344 C 227.324219 126.195312 241.699219 111.886719 256.121094 97.621094 C 272.96875 80.953125 289.792969 64.265625 306.816406 47.78125 C 310.476562 44.234375 314.859375 41.398438 319.085938 38.492188 C 320.542969 37.488281 322.53125 37.261719 326.324219 36 C 319.910156 51.15625 307.335938 59.148438 300.066406 70.386719 C 302.0625 72.449219 303.859375 74.300781 306.03125 76.539062 C 310.9375 74.34375 316.519531 71.511719 320.972656 66.476562 C 323.957031 63.101562 324.910156 63.558594 330.308594 67.34375 C 325.554688 71.246094 320.925781 74.832031 316.546875 78.703125 C 312.332031 82.425781 308.375 86.4375 305.195312 91.546875 C 310.09375 88.199219 314.851562 84.621094 319.929688 81.570312 C 324.828125 78.621094 330.054688 76.210938 335.136719 73.566406 C 335.636719 74.113281 336.132812 74.65625 336.632812 75.203125 C 334.6875 77.972656 332.746094 80.742188 330.949219 83.308594 C 335.589844 83.230469 340.34375 83.152344 345.480469 83.066406 C 346.777344 90.570312 335.648438 90.640625 337.40625 97.707031 C 333.828125 102.066406 330.246094 106.425781 326.527344 110.953125 C 327.753906 111.722656 328.851562 112.410156 330.453125 113.421875 C 303.367188 140.890625 276.449219 168.1875 248.894531 196.132812 C 279.148438 218.101562 306.339844 241.769531 334.105469 266.34375 C 330.332031 268.105469 327.941406 269.222656 326.21875 270.027344 C 317.988281 269.757812 314.574219 258.191406 304.359375 263.066406 C 307.117188 265.558594 309.554688 267.820312 312.0625 270 C 314.128906 271.789062 316.992188 272.820312 315.855469 276.757812 C 315.539062 277.851562 317.636719 280.003906 319.042969 281.171875 C 323.214844 284.632812 327.617188 287.820312 331.882812 291.179688 C 333.136719 292.167969 334.21875 293.367188 336.445312 295.484375 C 329.714844 296.214844 326.933594 291.121094 321.800781 289.914062 C 315.488281 297.191406 309.734375 290.160156 302.050781 287.132812 C 307.351562 294.238281 314.542969 297.523438 317.5 305.148438 C 309.472656 308.632812 302.664062 310.917969 295.238281 304.136719 C 288.992188 298.4375 281.566406 294.03125 274.660156 289.050781 C 274.292969 289.496094 273.925781 289.941406 273.558594 290.386719 C 285.960938 300.414062 298.359375 310.441406 311.84375 321.347656 C 306.617188 322.621094 304.316406 320.414062 301.886719 318.796875 C 271.652344 298.675781 242.613281 276.929688 214.378906 254.097656 C 211.308594 251.617188 208.015625 249.414062 204.253906 246.664062 C 201.058594 250.085938 198.125 253.074219 195.359375 256.21875 C 182.90625 270.371094 170.332031 284.421875 158.128906 298.785156 C 146.140625 312.902344 134.703125 327.488281 122.703125 341.597656 C 117.554688 347.65625 111.878906 353.34375 105.921875 358.605469 C 101.972656 362.09375 96.933594 363.984375 89.671875 364 C 92.191406 359.390625 93.910156 356.242188 95.898438 352.59375 C 94.238281 351.390625 92.511719 350.144531 90.773438 348.890625 C 92.195312 344.632812 93.625 340.347656 95.433594 334.921875 C 92.273438 335.734375 89.964844 336.328125 87.730469 336.902344 C 83.84375 336.234375 81.804688 332.445312 81.46875 325.417969 C 87.222656 323.0625 87.722656 322.574219 89.878906 316.488281 C 85.910156 319.347656 83.179688 321.910156 81.660156 325.65625" fill="inherit"/></g></svg>